<?xml version="1.0" encoding="UTF-8"?>
<svg id="Livello_1" xmlns="http://www.w3.org/2000/svg" version="1.1" viewBox="0 0 4000 4000">
  <!-- Generator: Adobe Illustrator 29.5.0, SVG Export Plug-In . SVG Version: 2.1.0 Build 137)  -->
  <defs>
    <style>
      .st0 {
        fill: #fff;
      }
    </style>
  </defs>
  <g>
    <path class="st0" d="M2118.8,2489l91.9-951.2h322.2l90.8,951.2h-180.5l-13.3-153.9h-115.2l-11.1,153.9h-184.9ZM2329.2,2183.4h86.4l-42.1-483.9h-8.9l-35.4,483.9Z"/>
    <path class="st0" d="M2642.1,2342.1v-804.3h190.5v789.5h196v161.7h-239.5c-81.1,0-146.9-65.8-146.9-146.9Z"/>
    <path class="st0" d="M3087.6,2425.3c-33.6-48.3-50.4-121.6-50.4-219.8v-409.7c0-87.8,19.6-154.3,58.7-199.3,39.1-45,97.4-67.5,175-67.5s111.5,12.6,146.2,37.6c34.7,25.1,65.2,61.6,78.5,109.6,13.3,48,13.5,103.1,13.5,178.4h-186v-78.8c0-22.9-3.2-40.6-9.4-53.2-6.3-12.5-17.5-18.8-33.8-18.8-36.2,0-54.3,23.6-54.3,70.9v460.7c0,28.8,3.7,50.6,11.1,65.3,7.4,14.8,20.3,22.1,38.8,22.1s31.4-7.4,38.8-22.1c7.4-14.8,11.1-36.5,11.1-65.3v-136.2h-50.9v-163.9h232.5l2.2,387.6c0,166.1-178.5,175-235.9,175s-151.9-24.2-185.5-72.5Z"/>
    <path class="st0" d="M3590.5,2427.5c-39.9-46.9-59.8-112.8-59.8-197.7v-452.9c0-81.9,19.9-143.8,59.8-185.5,39.9-41.7,98.2-62.6,175-62.6s135.1,20.9,175,62.6c39.9,41.7,59.8,103.5,59.8,185.5v452.9c0,85.6-19.9,151.7-59.8,198.2-39.9,46.5-98.2,69.8-175,69.8s-135.1-23.4-175-70.3ZM3799.8,2300.7c5.9-14.8,8.9-35.4,8.9-62v-465.1c0-20.7-2.8-37.5-8.3-50.4-5.5-12.9-16.8-19.4-33.8-19.4-31.8,0-47.6,24-47.6,72v464c0,27.3,3.3,48,10,62,6.6,14,18.8,21,36.5,21s28.4-7.4,34.3-22.1Z"/>
  </g>
  <g>
    <path class="st0" d="M1570.7,1752.6c-59.6-63.9-132.9-133.1-221.8-200.6-6-4.5-11.8-9-17.6-13.1-77.2-57.2-152.3-102.9-221.3-139.3-33.8-17.9-70-29.1-106.9-33.8-2.8-.3-5.7-.7-8.5-.9-3.9-.4-7.8-.7-11.7-1-6.3-.4-12.4-.6-18.7-.6h-.3c-6.3,0-12.4.1-18.7.6-4.2.3-8.4.6-12.5,1-2.7.3-5.2.6-7.8.9-3.3.4-6.6.9-9.7,1.5-33.4,5.1-66.3,16-97.1,32.3-69.1,36.4-144.3,82.1-221.5,139.3-5.8,4.2-11.6,8.7-17.6,13.1-88.9,67.5-162.2,136.6-221.6,200.6-53.3,57.3-77.8,135.8-67.3,213.4,10,75.6,28.2,162.6,60.6,255.8,11,32.1,23.9,64.8,38.7,98.1,44.5,100.5,96.3,182.5,144,246.6,26.3,45.1,75.4,72.1,127.8,70.2,19-.6,38.5-5.1,57.5-14,23.6-11.1,42.4-29.7,56.7-51.4,8.8-13.4,20-27.2,34.6-40.2,1.3-1.2,2.7-2.4,4-3.4,62-52.4,134.7-49.4,149.9-48.5,15.2-.9,87.7-3.9,149.6,48.4,1.5,1,2.8,2.4,4.3,3.6,14.5,13,25.7,26.7,34.6,40.2,14.2,21.7,33.2,40.3,56.6,51.4,19,8.8,38.4,13.4,57.5,14,52.6,1.9,101.6-25.1,127.8-70.2,47.6-64.1,99.5-146.1,144-246.6,14.3-32.6,27-64.5,37.9-95.9.2-.3.2-.6.3-.9,32.7-93.6,51.1-181.3,61.2-257.2,10.3-77.7-14-156.1-67.3-213.4ZM752.9,2032c-54.4,0-98.4-44.1-98.4-98.4s44.1-98.3,98.4-98.3,98.3,44.1,98.3,98.3-44.1,98.4-98.3,98.4ZM1175.3,2032c-54.4,0-98.4-44.1-98.4-98.4s44.1-98.3,98.4-98.3,98.3,44.1,98.3,98.3-44.1,98.4-98.3,98.4Z"/>
    <g>
      <path class="st0" d="M296.7,2265.7c-24,91.9-129.6,139.7-206.4,127.9-14.8-2.3-54.6-8.4-76.2-41.1-18.3-27.6-18.7-66.6-3.9-95.1,28-53.8,94.8-40.1,109.9-85.9,12-36.3-23.3-64.8-3.9-95.9,13.3-21.3,40.6-25.2,44.5-25.8,58.3-7.5,105.6,70.6,110.9,79.3,8.6,14.2,42.5,70.3,25.1,136.6Z"/>
      <path class="st0" d="M1913.9,2352.5c-21.6,32.7-61.4,38.9-76.2,41.1-76.8,11.8-182.3-36-206.4-127.9-17.4-66.4,16.5-122.4,25.1-136.6,5.3-8.8,52.5-86.8,110.9-79.3,3.8.5,31.1,4.4,44.4,25.8,19.4,31.1-15.9,59.6-3.9,95.9,15.1,45.8,81.9,32.1,109.9,85.9,14.8,28.6,14.4,67.6-3.9,95.1Z"/>
    </g>
  </g>
</svg>